<?xml version="1.0" encoding="utf-8"?>
<!-- Generator: Adobe Illustrator 24.0.1, SVG Export Plug-In . SVG Version: 6.00 Build 0)  -->
<svg version="1.1" id="Camada_1" xmlns="http://www.w3.org/2000/svg" xmlns:xlink="http://www.w3.org/1999/xlink" x="0px" y="0px"
	 viewBox="0 0 1920 800" style="enable-background:new 0 0 1920 800;" xml:space="preserve">
<style type="text/css">
	.st0{fill:#FE97B6;}
	.st1{fill:#FF6633;}
	.st2{fill:#FF6633;stroke:#FF6633;stroke-width:3;stroke-linecap:round;stroke-linejoin:round;stroke-miterlimit:10;}
</style>
<path class="st0" d="M156.6,542.2c-17.8,0-33.7-4.7-47.7-14.1c-22.6-15.2-33.9-38.2-33.9-69c0-16.7,3.2-31.7,9.6-45
	c13.4-27.7,37.2-41.5,71.4-41.5c15.8,0,29.7,3.5,41.8,10.6c6.3,3.7,11.5,8.6,15.6,14.6c3.8,5.5,5.7,11.2,5.7,17.1
	c0,9-3.8,15.5-11.4,19.6c-4.6,2.6-9.7,3.9-15.4,3.9c-4.3,0-8.7-1-13.4-3.1c-4.7-2.1-7.8-5.5-9.2-10.2c-0.2-0.6-0.3-1.1-0.3-1.7
	c0-0.9,0.2-1.7,0.5-2.5c0.3-0.8,0.8-1.3,1.3-1.6c0.6-0.3,1.1-0.4,1.5-0.4c1.1,0,2.2,0.8,3.4,2.5c1.1,2.1,2.9,3.2,5.2,3.2
	c0.8,0,1.5-0.1,2-0.3c4.3-2.1,6.4-6.7,6.4-13.6c0-1.2-0.1-2.4-0.3-3.5c-1.6-7.6-5.2-13.7-10.9-18.1c-5.7-4.5-12.4-6.8-20.2-6.9
	c-8.8,0-17,2.2-24.3,6.7c-17.6,11.2-26.4,33.4-26.4,66.7c0,18.9,3.8,35.3,11.4,49c10.2,17.9,24.3,26.9,42.5,26.9l6-0.2
	c21.6-2.1,37.1-13.2,46.5-33.2l9.9,3.4c-1.8,4.4-4.2,8.7-7.2,13.1C203.1,532.9,183.1,542.2,156.6,542.2z"/>
<path class="st0" d="M376.7,541.5c-17.8-0.2-28.2-11.6-31.2-34.3c-2.4,5.3-5.8,10.4-10.4,15.3c-12.7,12.7-28.3,19-46.9,19
	c-7.6,0-14.9-1.4-21.8-4.2c-10.6-4-18-11.3-22.2-21.7c-2.5-6.2-3.7-12.4-3.7-18.8c0-12.8,4.3-24,12.9-33.6
	c5.3-5.9,11.5-10.1,18.8-12.4c3.2-1.1,6.5-1.7,9.9-1.7c6.6,0,13,1.9,19.3,5.7c4.4,2.9,8.1,4.4,11.1,4.4c2.8,0,5.3-1,7.4-3
	c3.1-3,4.7-7.2,4.7-12.4c0-1.6-0.2-3.6-0.7-6c-0.8-4.5-4.6-6.7-11.6-6.7c-4.8,0-11.4,1.6-19.6,4.9c-7.5,2.9-13.4,4.4-17.6,4.4
	c-4.1,0-8.1-1.2-11.9-3.5c-3.2-2.6-5.6-5.9-7.1-9.9c-1.8-4.9-2.7-9.8-2.7-14.6c0-6.6,1.7-13.1,5.2-19.5
	c6.9-11.3,18.2-17.9,33.8-19.8c6.9-0.8,16.1-1.2,27.4-1.2c36.4,2,54.6,21.2,54.6,57.6v80.6c0.2,12.5,3.9,19.3,11.1,20.3l3.9,0.2
	c5.7-0.8,10-2.4,12.9-4.7C398.5,535.9,390,541.2,376.7,541.5z M301.6,526c5.4,0,10.8-1.2,16.3-3.5c14.8-7.2,24-19.5,27.7-37.1
	c0-21.4,0.1-39.8,0.3-55.2c0-6-0.5-12.6-1.5-19.6c-1-7-4.5-13.6-10.4-19.9c-6.8-6.5-14.6-9.7-23.3-9.7c-6.6,0-12.9,2-19,6
	c-6,4-10.2,10.2-12.4,18.6c-0.6,2-0.8,4-0.8,6c0,3.5,0.9,6.8,2.7,10.1c3.2,4.6,7.4,7.1,12.6,7.4l4.7,0.2c3.8,0,7.9-0.3,12.2-1
	c4.3-0.7,8.5-1.1,12.5-1.2c3.6,0,6.9,0.7,9.9,2.2c3.7,2.2,5.5,5.5,5.5,9.7c0,3.2-0.8,6.7-2.5,10.2c-1.7,3.6-3.7,6.5-6,8.7
	c-5.7,5.4-12.5,8.1-20.3,8.1c-2.9-0.1-6-0.4-9.2-1c-3.2-0.6-6.4-0.8-9.5-0.8c-3.2,0-6.4,0.9-9.6,2.7c-8.7,5.9-13.4,14.3-13.9,25.2
	c0,10,3.9,18.5,11.8,25.5C285.8,523.2,293.2,526,301.6,526z"/>
<path class="st0" d="M597.2,541.5h-83.8v-9.6c6.3,0,11.8-2,16.7-6.1c4.9-4.1,8.5-9.2,10.8-15.2c1.6-4,2.4-8,2.4-11.9
	c0-1.9-0.3-4.8-1-8.7c-1-4.8-5.6-9.5-13.8-13.9c-6.6-2.7-9.9-6.8-9.9-12.4c0-0.9,0.2-2.4,0.7-4.5c0.9-4,4.4-8.8,10.6-14.3
	c2.8-2.4,5.3-4.9,7.6-7.7c2.8-4.5,4.2-9.1,4.2-13.8c0-1-0.2-3.1-0.7-6.2c-1-8.2-6.5-15-16.6-20.5c-4.9-3-10-4.5-15.1-4.5
	c-6.9,0-13.8,2.5-20.7,7.6c-14.7,11-22.4,27.6-23.2,49.9v58.8c0,6.5,2.3,12,6.8,16.5c4.5,4.5,10,6.8,16.5,6.8h3.4v9.9h-81.3v-9.9
	h2.5c6.5,0,12-2.3,16.5-6.8c4.5-4.5,6.8-10,6.8-16.5v-90.7c0-7.9-2.8-14.7-8.3-20.3c-5.5-5.6-12.3-8.4-20.2-8.4v-9.4h55.2l1.5,38.1
	c2.6-6.8,6-13.1,10.4-18.8c12-15.4,27.1-23.2,45.3-23.2c4.8,0,9.5,0.9,14.1,2.7c11.6,4.5,20.2,12.8,25.5,25
	c1.9,4.3,2.9,8.5,2.9,12.8c0,4.1-0.9,8.2-2.7,12.3c-2.4,4-5.5,7.5-9.4,10.4l-2.4,2c-5.7,4.8-8.6,9.6-8.6,14.3c0,3.7,2.5,6.8,7.4,9.4
	c9.1,4.5,15.7,9.5,20,14.9c3.4,5,5,12.9,5,23.5c0,5.3,0.5,10.1,1.4,14.5c1,4.4,3.1,7.9,6.5,10.6c3.4,2.6,9,3.9,16.7,3.9V541.5z"/>
<path class="st0" d="M666.5,545.2c-13.5,0-25.9-3.9-37.1-11.8c-19.8-14.6-29.7-37.6-29.7-69c0-19.1,4.3-36.3,12.9-51.6
	c14.2-25,35.3-37.4,63.3-37.4c21.2,0,38,6.9,50.4,20.7v-56.8c0-10.1-3.5-18.6-10.6-25.7c-7.1-7.1-15.6-10.6-25.7-10.6v-9.6h64.8
	l0.7,209.6c0.3,8.1,3.2,14.8,8.7,20.3c5.5,5.5,12.2,8.2,20.2,8.2v9.7h-57.1l-0.7-40.3C714.2,530,694.2,544.7,666.5,545.2z
	 M676.8,529.9c10.4,0,19.7-3.7,27.9-11.1c15.2-13.7,22.8-35.8,22.8-66.3c0-14.4-2.2-27-6.5-37.8c-7.8-19.8-21-29.7-39.6-29.7
	c-7.4,0-14.1,1.7-20.2,5c-19.4,10.6-29.1,33.9-29.1,69.7c0,12,1.3,22.7,3.9,32.1C642.4,517.2,656,529.9,676.8,529.9z"/>
<path class="st0" d="M887,541.5h-85.8v-9.9c6.5,0,12.2-2.1,17.2-6.4c5-4.3,8.7-9.3,11.2-15.3c1.6-4.1,2.4-8.2,2.4-12.3
	c0-2-0.3-5-1-9.1c-1-5-5.7-9.8-14.1-14.3c-6.8-2.9-10.2-7.2-10.2-12.8c0-4.3,1.6-8.3,4.9-12.3c6.2-7.2,10.9-14.3,14.3-21.4
	c3.4-7.1,5.3-15.5,5.9-25.1c0.9-13.5,1.3-27,1.3-40.5c0-10-0.2-19.9-0.7-29.7c0-7.9-2.7-14.9-8.1-20.8c-0.7-0.9-2.7-2.2-6-4
	c-3.3-1.8-8.1-3.4-14.5-4.7v-9.4H861v3c0,12.3-0.3,34.5-1,66.7l-0.2,18.3c0,8.5-0.9,16.8-2.7,25c-3.1,11.6-9.6,20.9-19.3,27.9
	c-2.1,1.3-4,2.7-5.5,4.2c-2.6,2.4-3.9,5.2-3.9,8.6c0,7.1,5.2,13.7,15.6,19.8c5,2.8,9.2,6.3,12.6,10.6c3.6,5.4,5.4,13.8,5.4,25.2
	c0,5,0.5,9.7,1.4,14c1,4.3,3.2,7.8,6.6,10.6c3.5,2.7,9.1,4.1,17,4.1V541.5z"/>
<path class="st0" d="M973,542.7c-17.2,0-32.6-4.5-46-13.4c-22.7-15.2-34.1-38.6-34.1-70.2c0-17.2,3.6-32.7,10.7-46.3
	c13.8-26.5,36.5-39.8,68.2-39.8c16.3,0,30.7,3.7,43.2,11.1c6.5,3.7,12.3,8.8,17.5,15.3c6.4,7.9,9.6,16,9.6,24.2
	c0,6.3-1.8,12.6-5.3,18.9c-3.5,6.3-8.4,11.5-14.5,15.5c-7.5,4.4-15.2,6.5-23.2,6.5c-7.7,0-15.3-2-22.7-6c-5.9-3.2-10.9-4.9-14.9-4.9
	c-5.3,0-9,1.8-11.3,5.5c-0.9,1.6-1.3,3.2-1.3,4.9c0,2.7,0.8,5.2,2.4,7.6c4.6,5.6,12,8.4,22.2,8.4c4.4,0,10.7-0.8,19.1-2.5
	c6.9-1.6,13.9-2.4,20.8-2.4c4.9,0,9.5,1,13.8,3c4.3,2,7.5,4.8,9.7,8.5c2.2,3.6,3.3,7.4,3.3,11.3c0,0.7-0.1,2.4-0.3,5
	s-1.4,6.1-3.6,10.2C1024.8,532.8,1003.8,542.7,973,542.7z M977.2,535.8c12.4,0,23.3-4.3,32.7-12.9c4.3-4.1,7.3-8.8,9.2-14.1
	c1-2.8,1.5-5.4,1.5-7.7c0-2.5-0.6-5.4-1.9-8.8c-1.3-3.4-5.2-6.2-11.7-8.3c-2.5-0.8-5-1.2-7.7-1.2c-3.9,0-8.8,0.7-14.6,2.2
	c-3.8,1-8,1.5-12.6,1.5c-9,0-17.5-3-25.8-9.2c-8.2-6.1-13-15.9-14.4-29.5c0-5.9,1.5-11.1,4.5-15.4c3-4.3,7.1-6.6,12.5-7
	c4.8,0.1,10.4,2.7,16.6,7.9c6.4,5.6,12.6,8.4,18.8,8.4c5.4,0,10.5-1.8,15.3-5.4c7.9-6.2,11.9-12.8,11.9-20c0-0.9-0.4-3.7-1.1-8.3
	c-0.7-4.6-4.8-10-12.3-16.1c-7.4-6.1-16-9.3-25.6-9.7c-6.6,0-12.9,1.6-18.8,4.7c-17.8,8.8-27.3,27.9-28.5,57.3l-0.2,5.7l0.2,4.9
	c2.1,16.6,4.4,29.7,6.7,39.3c2.5,10.1,6.8,19.1,12.9,27C953.4,530.9,964.1,535.8,977.2,535.8z"/>
<path class="st0" d="M1146.1,541.5h-25.5c-2.1-1-3.4-2.5-3.9-4.4c-0.5-1.9-0.8-4.2-0.8-6.9c0-3.5-1.2-7.8-3.5-13.1
	c-4.4-9.7-6.8-18.6-7.2-26.7c0-2.9,0.6-6,1.7-9.4c1.3-4,4.6-7.7,9.9-10.9c4.7-2.6,7.2-5.4,7.4-8.4c0-4.4-4.3-7.6-12.8-9.7
	c-11.9-3.8-20.8-10.5-26.7-20c-5.9-9.5-10.7-19.8-14.3-30.9c-1.5-3.7-3.8-6.7-6.9-8.9c-3.1-2.2-6.7-3.4-10.6-3.4h-4.2v-9.4h73.9v9.4
	c-6.4,0-11.4,2.6-14.9,7.7c-2.4,3.4-3.5,6.9-3.5,10.6c0,2.1,0.4,4.4,1.2,6.7c1.1,3,2.1,6.1,2.9,9.2c1.2,4.9,2.9,9.6,5,13.9
	c2.7,5.4,7.9,9.7,15.6,13.1c4.5,1.3,8.1,3.7,10.9,7.1c1.6,2.2,2.4,4.8,2.4,7.6c0,3.9-1.5,9-4.4,15.1c-2.9,6.2-4.4,11-4.4,14.6
	c0,4.1,1.8,8.3,5.4,12.4c4.3,4.3,6.4,7.7,6.4,10.4c0,0.6-0.1,1.1-0.3,1.5l38.5-103.1c0.8-2.5,1.2-4.9,1.2-7.2c0-4-1.6-8.3-4.7-12.8
	c-3.1-4.5-8.2-6.8-15.1-6.8v-9.4h58.8v9.4c-7.4,0-11.7,0.2-12.9,0.5c-4.4,0.7-8.1,5-11.1,12.9L1146.1,541.5z"/>
<path class="st0" d="M1309.4,542.7c-17.2,0-32.6-4.5-46-13.4c-22.7-15.2-34.1-38.6-34.1-70.2c0-17.2,3.6-32.7,10.7-46.3
	c13.8-26.5,36.5-39.8,68.2-39.8c16.3,0,30.7,3.7,43.2,11.1c6.5,3.7,12.3,8.8,17.5,15.3c6.4,7.9,9.6,16,9.6,24.2
	c0,6.3-1.8,12.6-5.3,18.9c-3.5,6.3-8.4,11.5-14.5,15.5c-7.5,4.4-15.2,6.5-23.2,6.5c-7.7,0-15.3-2-22.7-6c-5.9-3.2-10.9-4.9-14.9-4.9
	c-5.3,0-9,1.8-11.3,5.5c-0.9,1.6-1.3,3.2-1.3,4.9c0,2.7,0.8,5.2,2.4,7.6c4.6,5.6,12,8.4,22.2,8.4c4.4,0,10.7-0.8,19.1-2.5
	c6.9-1.6,13.9-2.4,20.8-2.4c4.9,0,9.5,1,13.8,3c4.3,2,7.5,4.8,9.7,8.5c2.2,3.6,3.3,7.4,3.3,11.3c0,0.7-0.1,2.4-0.3,5
	c-0.2,2.7-1.4,6.1-3.6,10.2C1361.2,532.8,1340.2,542.7,1309.4,542.7z M1313.6,535.8c12.4,0,23.3-4.3,32.7-12.9
	c4.3-4.1,7.3-8.8,9.2-14.1c1-2.8,1.5-5.4,1.5-7.7c0-2.5-0.6-5.4-1.9-8.8c-1.3-3.4-5.2-6.2-11.7-8.3c-2.5-0.8-5-1.2-7.7-1.2
	c-3.9,0-8.8,0.7-14.6,2.2c-3.8,1-8,1.5-12.6,1.5c-9,0-17.5-3-25.8-9.2c-8.2-6.1-13-15.9-14.4-29.5c0-5.9,1.5-11.1,4.5-15.4
	c3-4.3,7.1-6.6,12.5-7c4.8,0.1,10.4,2.7,16.6,7.9c6.4,5.6,12.6,8.4,18.8,8.4c5.4,0,10.5-1.8,15.3-5.4c7.9-6.2,11.9-12.8,11.9-20
	c0-0.9-0.4-3.7-1.1-8.3c-0.7-4.6-4.8-10-12.3-16.1c-7.4-6.1-16-9.3-25.6-9.7c-6.6,0-12.9,1.6-18.8,4.7
	c-17.8,8.8-27.3,27.9-28.5,57.3l-0.2,5.7l0.2,4.9c2.1,16.6,4.4,29.7,6.7,39.3c2.5,10.1,6.8,19.1,12.9,27
	C1289.7,530.9,1300.5,535.8,1313.6,535.8z"/>
<path class="st0" d="M1479.3,541.5H1397v-9.6c7.3,0,13.5-2.6,18.8-7.9c5.3-5.3,7.9-11.5,7.9-18.8v-87.8c0-7.8-2.8-14.6-8.4-20.2
	c-5.6-5.6-12.3-8.4-20.2-8.4v-9.4h57.6l-0.8,37.6c7.2-16.6,18.9-28.7,35.1-36.3c5.6-2.6,11.2-3.9,16.8-3.9c4.8,0,8.3,0.6,10.4,1.7
	c10,3.9,16.2,11.1,18.6,21.5c0.3,1.8,0.5,3.5,0.5,5c0,8.5-3.5,15.7-10.6,21.7c-4.6,3.1-9.8,4.7-15.6,4.7c-4.9,0-9.4-1.3-13.4-3.9
	c-4.4-2.9-6.5-7.4-6.5-13.4c0-3.6,1.2-5.4,3.5-5.4c1.1,0,2.2,0.8,3.4,2.5c1,1,2.3,1.5,3.9,1.5c2.4,0,4.1-0.8,5.3-2.4
	c1.2-1.6,1.8-3.3,1.8-5c0-4.7-2.9-8.5-8.6-11.3c-2.9-1.5-5.7-2.2-8.2-2.2c-3.9,0-8.8,2.7-14.6,8.2c-14.2,14.1-21.3,32.7-21.3,55.8
	v49.2c0,7.3,2.6,13.5,7.8,18.8c5.2,5.3,11.6,7.9,19.2,7.9V541.5z"/>
<path class="st0" d="M1610.6,542.8c-3,0-7.3-0.3-12.8-0.8c-5.5-0.6-11.6-2.3-18.1-5.2c-7.8-3.7-14.3-9-19.3-15.8
	c-5.7-7.5-8.6-15.8-8.6-24.9c0-7.8,2.6-14.7,7.7-20.7c4.8-4.8,11.1-7.2,18.8-7.2c4.9,0,9.6,1.3,14.1,4c4.5,2.7,6.7,7.4,6.7,14.1
	c-0.1,3.2-1.1,6.2-3,8.9c-1.9,2.7-4.4,4.6-7.4,5.9c-1.1,0.6-2.3,0.8-3.5,0.8c-0.7,0-1.4-0.1-2.3-0.4c-0.8-0.3-1.6-0.8-2.2-1.5
	c-0.6-0.7-0.9-1.6-0.9-2.6c0.2-1,0.8-2,1.6-2.9c0.8-1,1.3-1.9,1.3-2.8c0-1.8-1.2-2.7-3.7-2.7c-2.4,0-4.5,1.1-6.4,3.4
	c-1.5,1.8-2.2,3.8-2.2,6c0.1,8.4,3.1,15.3,9.1,20.7c8.7,7.9,19.5,11.9,32.4,11.9c4.6,0,9.9-0.9,16-2.6c6.1-1.7,11.3-6.1,15.5-13
	c2.2-3.7,3.4-7.8,3.4-12.3c0-10.5-7.6-19.6-22.8-27.2c-3.4-1.8-8.8-4.3-16.3-7.4c-20.5-8.6-34.1-16.7-41-24.2
	c-7.3-8.2-10.9-17.8-10.9-28.9c0-17.4,9.5-29.5,28.5-36.4c8.7-3.2,18.2-4.9,28.5-4.9c11.6,0,22.2,1.7,31.7,5.2
	c0.9,0.2,1.8,0.3,2.9,0.3c1.7,0,3.4-0.6,5.3-1.9c1.8-1.3,2.8-3.4,2.8-6.3h10.6v47.4h-9.9c-0.6-23.1-13.3-34.7-38.3-34.9
	c-18.8,0-30.5,5.5-34.9,16.5c-1.3,3-2,6.2-2,9.6c0,10.7,7.8,19.9,23.3,27.4c3.6,1.8,9.1,4.1,16.5,7.1c20.4,8.3,34,16.2,40.8,23.7
	c7.2,8.1,10.7,17.6,10.7,28.5c0,16.5-7.8,28.9-23.3,37.3C1638,539.9,1625.2,542.8,1610.6,542.8z"/>
<path class="st0" d="M1776,542.7c-17.2,0-32.6-4.5-46-13.4c-22.7-15.2-34.1-38.6-34.1-70.2c0-17.2,3.6-32.7,10.7-46.3
	c13.8-26.5,36.5-39.8,68.2-39.8c16.3,0,30.7,3.7,43.2,11.1c6.5,3.7,12.3,8.8,17.5,15.3c6.4,7.9,9.6,16,9.6,24.2
	c0,6.3-1.8,12.6-5.3,18.9c-3.5,6.3-8.4,11.5-14.5,15.5c-7.5,4.4-15.2,6.5-23.2,6.5c-7.7,0-15.3-2-22.7-6c-5.9-3.2-10.9-4.9-14.9-4.9
	c-5.3,0-9,1.8-11.3,5.5c-0.9,1.6-1.3,3.2-1.3,4.9c0,2.7,0.8,5.2,2.4,7.6c4.6,5.6,12,8.4,22.2,8.4c4.4,0,10.7-0.8,19.1-2.5
	c6.9-1.6,13.9-2.4,20.8-2.4c4.9,0,9.5,1,13.8,3c4.3,2,7.5,4.8,9.7,8.5c2.2,3.6,3.3,7.4,3.3,11.3c0,0.7-0.1,2.4-0.3,5
	c-0.2,2.7-1.4,6.1-3.6,10.2C1827.9,532.8,1806.8,542.7,1776,542.7z M1780.2,535.8c12.4,0,23.3-4.3,32.7-12.9
	c4.3-4.1,7.3-8.8,9.2-14.1c1-2.8,1.5-5.4,1.5-7.7c0-2.5-0.6-5.4-1.9-8.8c-1.3-3.4-5.2-6.2-11.7-8.3c-2.5-0.8-5-1.2-7.7-1.2
	c-3.9,0-8.8,0.7-14.6,2.2c-3.8,1-8,1.5-12.6,1.5c-9,0-17.5-3-25.8-9.2c-8.2-6.1-13-15.9-14.4-29.5c0-5.9,1.5-11.1,4.5-15.4
	c3-4.3,7.1-6.6,12.5-7c4.8,0.1,10.4,2.7,16.6,7.9c6.4,5.6,12.6,8.4,18.8,8.4c5.4,0,10.5-1.8,15.3-5.4c7.9-6.2,11.9-12.8,11.9-20
	c0-0.9-0.4-3.7-1.1-8.3c-0.7-4.6-4.8-10-12.3-16.1c-7.4-6.1-16-9.3-25.6-9.7c-6.6,0-12.9,1.6-18.8,4.7
	c-17.8,8.8-27.3,27.9-28.5,57.3l-0.2,5.7l0.2,4.9c2.1,16.6,4.4,29.7,6.7,39.3c2.5,10.1,6.8,19.1,12.9,27
	C1756.4,530.9,1767.1,535.8,1780.2,535.8z"/>
<polyline class="st1" points="835.4,284.3 826.7,288.2 829,277.7 817.8,275.7 827,271.7 822.4,259.3 831.8,265.1 836.7,254.8 
	840,262.7 851.5,258 845.7,268.3 854.5,273.6 846,277 849.6,284.4 841.5,282.6 "/>
<g>
	<path class="st2" d="M1447.9,567.9c2.4,0,1.9,2.6-0.8,3.1c-7.7,1.3-21.2,27.4-29.4,45.3c0.4,0.5,0.6,1.3,0.8,2.4
		c4.6,0,15.4-4.2,23.2-12.1c1.3-1.3,2.1,0.4,1.2,1.2c-7.6,7.1-18.1,11.9-24.3,12.4c0.7,10.6-5.6,36.1-11.2,36.1
		c-5.4,0-0.7-17.7,7.4-36.5c-0.8-0.5-1.3-1.3-1.2-2.5c0.1-1.3,1.1-1.9,2-1.9c0.4,0,0.7,0.1,1.1,0.2
		C1420.3,607.7,1437.7,567.9,1447.9,567.9z M1417.3,620.2c-0.5,0-1,0-1.3-0.1c-6.9,15.7-11.1,30.5-8.1,32.7
		C1411.7,651.8,1417.9,629,1417.3,620.2z"/>
	<path class="st2" d="M1458.1,601.3c-0.5-0.5-0.1-1.3,0.2-1.7c1.3-1.7,2.4-4.3,2.3-5.7c-6.3,0.6-13.7,7.9-18.9,15.8
		c-6.9,10.5-8.3,18.9-7.6,20.2c2.5-0.5,6.2-4.2,11.4-10.6c5.1-6.4,10.5-12.7,13.8-12.7c3,0,0.8,5.8-1.3,11.4c-1.9,5.2-2.5,9,0.2,9
		c6.5,0,18.8-15.4,22.7-20.3c0.2-0.4,0.7-0.7,1.3-0.4c0.6,0.4,0.5,1.1,0.2,1.4c-4,5.2-19,22.5-25.6,22.5c-4.5,0-2.9-6.4-0.7-12.3
		c1.5-4.3,2.3-7,1.9-8.3c-3,0-6.7,4.8-11.8,11.1c-5.2,6.4-10.5,13.1-13.6,13.1c-4.3,0,0.2-13.6,7.7-25.5c3.5-5.6,12.5-17,19.9-17
		c3.7,0,3.7,3.8-0.6,9.6C1459.6,601.3,1458.7,601.8,1458.1,601.3z"/>
	<path class="st2" d="M1497.4,607.4c1.1-2.1,4.4-10.1-1-10.1c-4.3,0-10.7,5-16.2,13.2c-6.9,10.2-10.1,21.2-3.5,21.2
		c10.9,0,28.2-17.4,35.6-24.8c1.2-1.2,2.6-0.1,1.5,1c-6.9,6.9-26.5,25.2-37,26.8l-0.1,0.1c-2.4,2.7-6.4,8.2-6.7,8.8
		c0.8-0.2,5.1-3,9.2-3c6.1,0,7.7,5.8,3.8,13.3c-3.2,6.4-8.4,10-13.9,10c-5.8,0-8.7-4.2-7.4-8.7c0.4-1,1.2-1.5,2.1-1.5
		c0.6,0,1.2,0.5,1,1.5c-0.8,3.6,1.1,6.3,5.4,6.3c4.4,0,8.4-3.1,11.2-8.1c3.2-6.2,1.8-10.1-3.7-10.1c-3.7,0-6.3,1.8-7.9,1.8
		c-0.4,0-0.7,0-0.8-0.4c-1.5-1.7,3-7.3,5.2-10.1c-7.3-1.1-3.2-13.3,4-24.2c5.8-8.6,13.2-15.9,19.2-15.9c3.5,0,6.9,2.5,1.3,13.6
		C1498.2,609.3,1496.8,608.9,1497.4,607.4z"/>
	<path class="st2" d="M1529.5,601.3c-0.5-0.5-0.1-1.3,0.2-1.7c1.3-1.7,2.4-4.3,2.3-5.7c-6.3,0.6-13.7,7.9-18.9,15.8
		c-6.9,10.5-8.3,18.9-7.6,20.2c2.5-0.5,6.2-4.2,11.4-10.6c5.1-6.4,10.5-12.7,13.8-12.7c3,0,0.8,5.8-1.3,11.4c-1.9,5.2-2.5,9,0.2,9
		c6.5,0,18.8-15.4,22.7-20.3c0.2-0.4,0.7-0.7,1.3-0.4c0.6,0.4,0.5,1.1,0.2,1.4c-4,5.2-19,22.5-25.6,22.5c-4.5,0-2.9-6.4-0.7-12.3
		c1.5-4.3,2.3-7,1.9-8.3c-3,0-6.7,4.8-11.8,11.1c-5.2,6.4-10.5,13.1-13.6,13.1c-4.3,0,0.2-13.6,7.7-25.5c3.5-5.6,12.5-17,19.9-17
		c3.7,0,3.7,3.8-0.6,9.6C1531,601.3,1530.1,601.8,1529.5,601.3z"/>
	<path class="st2" d="M1600,616.6c-1.2,6.4-15.2,15.9-21.2,15.9c-4.2,0-4.8-5.6,8.1-12c3.1-1.4,7.1-3,11.4-4.8
		c-1-4.6-18.6,0.2-15.6-8c2.3-6.4,18.2-16.9,24.6-16.9c6.3,0-2.1,7.7-3.1,8.9c-0.4,0.4-0.6,0.5-1,0.5c-0.8,0-1.4-1.1-0.7-1.9
		c1.3-1.7,4.3-3.3,4.5-4.5h-1c-5.8,0-19.8,8.1-21.8,13.8c-1.9,5.2,14.4,1.9,15.6,7.5c4.9-2,10-4.4,14.8-7.4c1.1-0.6,1.9,1,1,1.5
		C1610.7,612.4,1605.1,614.7,1600,616.6z M1581.9,629.6c6-1,13.6-6.9,16.2-12.3c-4.2,1.5-7.9,3-10.7,4.4c-4.8,2.5-7.1,4.6-8.6,7.6
		C1579.1,629.7,1580.6,629.8,1581.9,629.6z"/>
	<path class="st2" d="M1661.1,607.7c-3.5,3.9-6.9,8.2-10.1,12c-5.6,6.4-10.8,11.5-14.8,11.5c-6.1,0-2.7-10,1.3-19.8
		c2.9-7,4.3-10.1,4.9-13c-2.5,2.1-6.5,8.7-13,18.2c-6.2,9.2-13,17.6-17.9,17.6c-6.9,0-2.6-13.4,3-25.8c1-2.3,8.2-18.1,10.4-18.1
		c0.8,0,1.7,1,1,1.9c-1.8,2.7-6.5,9.4-10,16.9c-5.1,11.3-7.9,20.7-3.6,21.8s10.1-6.3,16.1-15.2c7.4-10.9,13.9-23,16.4-23
		c2.7,0-1.9,9.8-5.8,19.3c-3.8,8.9-6,15.9-1.8,15.9c3.3,0,7.6-3.5,12.9-9.4c3.5-3.9,6.8-8.3,9.6-11.9
		C1660.7,605.5,1662,606.7,1661.1,607.7z"/>
	<path class="st2" d="M1676.1,601.3c-0.5-0.5-0.1-1.3,0.2-1.7c1.3-1.7,2.4-4.3,2.3-5.7c-6.3,0.6-13.7,7.9-18.9,15.8
		c-6.9,10.5-8.3,18.9-7.6,20.2c2.5-0.5,6.2-4.2,11.4-10.6c5.1-6.4,10.5-12.7,13.8-12.7c3,0,0.8,5.8-1.3,11.4c-1.9,5.2-2.5,9,0.2,9
		c6.5,0,18.8-15.4,22.7-20.3c0.2-0.4,0.7-0.7,1.3-0.4c0.6,0.4,0.5,1.1,0.2,1.4c-4,5.2-19,22.5-25.6,22.5c-4.5,0-2.9-6.4-0.7-12.3
		c1.5-4.3,2.3-7,1.9-8.3c-3,0-6.7,4.8-11.8,11.1c-5.2,6.4-10.5,13.1-13.6,13.1c-4.3,0,0.2-13.6,7.7-25.5c3.5-5.6,12.5-17,19.9-17
		c3.7,0,3.7,3.8-0.6,9.6C1677.6,601.3,1676.7,601.8,1676.1,601.3z"/>
	<path class="st2" d="M1730.4,635.5c-7.7,0-9.4-7.5-0.4-29.2c5.6-13.3,17.3-39.7,21.8-39.7c6.3,0-0.1,18-20,40.8l-2.3,5.6
		c-5.7,15.2-2.7,18.8,2,18.8c9.2,0,22.7-16.5,28.1-23.7c0.7-1,2.1,0.1,1.3,1.2C1755.5,617,1739.7,635.5,1730.4,635.5z M1750.7,570.1
		c-2.7,1.3-9.9,15.7-17.7,33.9C1746.6,585.7,1752.8,573.3,1750.7,570.1z"/>
	<path class="st2" d="M1806.3,607.7c-3.5,3.9-6.9,8.2-10.1,12c-5.6,6.4-10.8,11.5-14.8,11.5c-6.1,0-2.7-10,1.3-19.8
		c2.9-7,4.3-10.1,4.9-13c-2.5,2.1-6.5,8.7-13,18.2c-6.2,9.2-13,17.6-17.9,17.6c-6.9,0-2.6-13.4,3-25.8c1-2.3,8.2-18.1,10.4-18.1
		c0.8,0,1.7,1,1,1.9c-1.8,2.7-6.5,9.4-10,16.9c-5.1,11.3-7.9,20.7-3.6,21.8s10.1-6.3,16.1-15.2c7.4-10.9,13.9-23,16.4-23
		c2.7,0-1.9,9.8-5.8,19.3c-3.8,8.9-6,15.9-1.8,15.9c3.3,0,7.6-3.5,12.9-9.4c3.5-3.9,6.8-8.3,9.6-11.9
		C1805.8,605.5,1807.1,606.7,1806.3,607.7z"/>
	<path class="st2" d="M1819.3,597.2c6.2-3.8,9.3-5,10.9-5c1.4,0,1.8,1,2.1,1.9c0.8,2.5-5.8,8.7-12.3,14.8l-12.7,11.8
		c1,0.8,5.8,3.5,8.2,8c5.8-5.2,13.1-11.5,25.1-21.4c1.3-1.1,2.5,0.4,1.1,1.5c-12,10-19.6,15.9-25.5,21.1c1,2.1,1.2,4.8,0.2,7.6
		c-3,9.3-23.3,29.5-30.9,29.5c-10.4,0,7.9-18.1,27.7-36.3c0.2-0.1,0.4-0.4,0.6-0.6c-3.1-4.2-9.6-6.4-8.4-9.5
		c0.7-1.8,7.4-7.1,13.7-12.7c6.4-5.7,10.9-10.8,10.4-12.3c-0.7-0.4-3.7-0.6-10.2,3.2c-6.2,3.6-9.6,7.3-14.3,10.6
		c-1.5,1.1-3.2-0.5-1.2-1.9C1808.5,604.3,1814.3,600.3,1819.3,597.2z M1815.1,637c0.7-2.3,0.5-4-0.5-5.7l-0.5,0.5
		c-1.2,1.1-29.2,26.5-26.9,31.9C1793.6,662.5,1812.1,646,1815.1,637z"/>
</g>
</svg>
